<?xml version="1.0" encoding="utf-8"?><svg width="2048" height="1536" viewBox="0 0 2048 1536" xmlns="http://www.w3.org/2000/svg" xmlns:xlink="http://www.w3.org/1999/xlink"><view id="arrow" viewBox="0 0 512 512"/><svg width="512" height="512" viewBox="0 0 32 32" xmlns="http://www.w3.org/2000/svg"><path d="M24.82 15.29L12.48 3a3.35 3.35 0 0 0-4.63 0 3.27 3.27 0 0 0 0 4.63L16.26 16l-8.41 8.41A3.27 3.27 0 1 0 12.48 29l12.34-12.29a1 1 0 0 0 0-1.42z" data-original="#000000" data-name="right"/></svg><view id="burger" viewBox="512 0 512 512"/><svg width="512" height="512" viewBox="0 0 64 64" class="bhovered-paths" x="512" xmlns="http://www.w3.org/2000/svg"><path d="M53 21H11c-1.7 0-3-1.3-3-3s1.3-3 3-3h42c1.7 0 3 1.3 3 3s-1.3 3-3 3zm0 14H11c-1.7 0-3-1.3-3-3s1.3-3 3-3h42c1.7 0 3 1.3 3 3s-1.3 3-3 3zm0 14H11c-1.7 0-3-1.3-3-3s1.3-3 3-3h42c1.7 0 3 1.3 3 3s-1.3 3-3 3z" data-original="#000000" class="bhovered-path"/></svg><view id="cargo01" viewBox="0 512 512 512"/><svg width="512" height="512" viewBox="0 0 32 32" y="512" xmlns="http://www.w3.org/2000/svg"><path d="M13 25h6v2h-6zm0-3a1 1 0 1 0 2 0 1 1 0 0 0-2 0zm4 0a1 1 0 1 0 2 0 1 1 0 0 0-2 0zm-3.586-7h7.867l-1.19 4.758A1.679 1.679 0 0 1 18.5 21h-5c-.827 0-1.5-.673-1.5-1.5v-3.086L10.586 15 12 13.586zm5.305 2H14v2h4.219zM29 7v1c0 1.858-1.28 3.41-3 3.858V27c0 2.206-1.794 4-4 4H10c-2.206 0-4-1.794-4-4V11.858c-1.72-.447-3-2-3-3.858V7c0-.181.05-.359.143-.515L5.37 2.771C5.977 1.761 7.322 1 8.5 1h15c1.179 0 2.524.762 3.129 1.772l2.228 3.713A.997.997 0 0 1 29 7zM5.766 6h20.467l-1.319-2.2c-.242-.404-.942-.8-1.414-.8h-15c-.471 0-1.172.396-1.415.8zM11 8c0 1.103.897 2 2 2s2-.897 2-2zm6 0c0 1.103.897 2 2 2s2-.897 2-2zM7 10c1.103 0 2-.897 2-2H5c0 1.103.897 2 2 2zm17 17V11.858a3.977 3.977 0 0 1-2-1.24c-.733.84-1.8 1.382-3 1.382s-2.266-.542-3-1.382c-.734.84-1.8 1.382-3 1.382s-2.266-.542-3-1.382a3.983 3.983 0 0 1-2 1.24V27c0 1.103.897 2 2 2h12c1.103 0 2-.897 2-2zm3-19h-4c0 1.103.897 2 2 2s2-.897 2-2z" data-original="url(#SVGID_1_)"/></svg><view id="cargo02" viewBox="512 512 512 512"/><svg width="512" height="512" viewBox="0 0 512 512" x="512" y="512" xmlns="http://www.w3.org/2000/svg"><path d="M236 191h-30c-5.523 0-10-4.477-10-10s4.477-10 10-10h30c5.523 0 10 4.477 10 10s-4.477 10-10 10zm250 85H326c-5.522 0-10-4.477-10-10s4.478-10 10-10h160c5.522 0 10 4.477 10 10s-4.478 10-10 10z" data-original="#000000"/><path d="M336 366H226c-5.523 0-10-4.478-10-10s4.477-10 10-10h100V106H36v240h30c5.523 0 10 4.478 10 10s-4.477 10-10 10H26c-5.523 0-10-4.478-10-10V96c0-5.523 4.477-10 10-10h310c5.522 0 10 4.477 10 10v260c0 5.522-4.478 10-10 10z" data-original="#000000"/><path d="M486 366h-40c-5.522 0-10-4.478-10-10s4.478-10 10-10h30v-76.569L411.109 186H346v160h20c5.522 0 10 4.478 10 10s-4.478 10-10 10h-30c-5.522 0-10-4.478-10-10V176c0-5.523 4.478-10 10-10h80c3.086 0 5.999 1.425 7.894 3.861l70 90A10 10 0 0 1 496 266v90c0 5.522-4.478 10-10 10z" data-original="#000000"/><path d="M406 406c-27.57 0-50-22.43-50-50s22.43-50 50-50 50 22.43 50 50-22.43 50-50 50zm0-80c-16.542 0-30 13.458-30 30s13.458 30 30 30 30-13.458 30-30-13.458-30-30-30zm-300 80c-27.57 0-50-22.43-50-50s22.43-50 50-50 50 22.43 50 50-22.43 50-50 50zm0-80c-16.542 0-30 13.458-30 30s13.458 30 30 30 30-13.458 30-30-13.458-30-30-30z" data-original="#000000"/><path d="M186 406c-27.57 0-50-22.43-50-50s22.43-50 50-50 50 22.43 50 50-22.43 50-50 50zm0-80c-16.542 0-30 13.458-30 30s13.458 30 30 30 30-13.458 30-30-13.458-30-30-30zm140-50H26c-5.523 0-10-4.477-10-10s4.477-10 10-10h300c5.522 0 10 4.477 10 10s-4.478 10-10 10zm160 40h-20c-5.522 0-10-4.478-10-10s4.478-10 10-10h20c5.522 0 10 4.478 10 10s-4.478 10-10 10zM66 226c-5.523 0-10-4.477-10-10v-70c0-5.523 4.477-10 10-10h40c5.523 0 10 4.477 10 10s-4.477 10-10 10H76v60c0 5.523-4.477 10-10 10z" data-original="#000000"/><path d="M96 196H66c-5.523 0-10-4.477-10-10s4.477-10 10-10h30c5.523 0 10 4.477 10 10s-4.477 10-10 10zm60 0h-20c-5.523 0-10-4.477-10-10v-40c0-5.523 4.477-10 10-10h20c16.542 0 30 13.458 30 30s-13.458 30-30 30zm-10-20h10c5.514 0 10-4.486 10-10s-4.486-10-10-10h-10z" data-original="#000000"/><path d="M136 226c-5.523 0-10-4.477-10-10v-30c0-5.523 4.477-10 10-10s10 4.477 10 10v30c0 5.523-4.477 10-10 10z" data-original="#000000"/><path d="M176.009 226.001a9.99 9.99 0 0 1-8.33-4.454l-20-30c-3.063-4.595-1.822-10.804 2.773-13.867 4.595-3.064 10.804-1.822 13.867 2.773l20 30c3.063 4.595 1.822 10.804-2.773 13.867a9.946 9.946 0 0 1-5.537 1.681zM236 226h-30c-5.523 0-10-4.477-10-10v-70c0-5.523 4.477-10 10-10h30c5.523 0 10 4.477 10 10s-4.477 10-10 10h-20v50h20c5.523 0 10 4.477 10 10s-4.477 10-10 10zm60-35h-30c-5.523 0-10-4.477-10-10s4.477-10 10-10h30c5.522 0 10 4.477 10 10s-4.478 10-10 10z" data-original="#000000"/><path d="M296 226h-30c-5.523 0-10-4.477-10-10v-70c0-5.523 4.477-10 10-10h30c5.522 0 10 4.477 10 10s-4.478 10-10 10h-20v50h20c5.522 0 10 4.477 10 10s-4.478 10-10 10zm170 200H46c-5.523 0-10-4.478-10-10s4.477-10 10-10h420c5.522 0 10 4.478 10 10s-4.478 10-10 10zM326 316h-60c-5.523 0-10-4.478-10-10s4.477-10 10-10h60c5.522 0 10 4.478 10 10s-4.478 10-10 10z" data-original="#000000"/></svg><view id="cargo03" viewBox="1024 0 512 512"/><svg width="512" height="512" viewBox="0 0 32 32" x="1024" xmlns="http://www.w3.org/2000/svg"><path d="M3 22a1 1 0 0 0-1 1c0 1.208.577 2.721 1.483 3.735C4.182 27.518 5.068 28 6 28h20c.932 0 1.818-.482 2.517-1.265C29.423 25.721 30 24.208 30 23a1 1 0 0 0-1-1zm24.823 2H4.177c.169.508.449 1.012.798 1.403.294.33.632.597 1.025.597h20c.393 0 .731-.267 1.025-.597.349-.391.629-.895.798-1.403z" data-original="#000000"/><path d="M28 23V7c0-1.656-1.344-3-3-3H7C5.344 4 4 5.344 4 7v16a1 1 0 0 0 2 0V7a1 1 0 0 1 1-1h18a1 1 0 0 1 1 1v16a1 1 0 0 0 2 0z" data-original="#000000"/><path d="M14 9h4a1 1 0 0 0 0-2h-4a1 1 0 0 0 0 2z" data-original="#000000"/></svg><view id="cargo04" viewBox="1024 512 512 512"/><svg width="512" height="512" viewBox="0 0 32 32" x="1024" y="512" xmlns="http://www.w3.org/2000/svg"><path d="M28.23 14.78l-.59-.29-.53-2.16a2.74 2.74 0 0 0-2.67-2.08h-2.69V9A2.75 2.75 0 0 0 19 6.25H5A2.75 2.75 0 0 0 2.25 9v12A2.75 2.75 0 0 0 5 23.75h1.37a2.73 2.73 0 0 0 5.26 0h10.74a2.73 2.73 0 0 0 5.29-.09A2.74 2.74 0 0 0 29.75 21v-3.76a2.73 2.73 0 0 0-1.52-2.46zM3.75 21V9A1.25 1.25 0 0 1 5 7.75h14A1.25 1.25 0 0 1 20.25 9v13.25h-8.62a2.73 2.73 0 0 0-5.26 0H5A1.25 1.25 0 0 1 3.75 21zM9 24.25A1.25 1.25 0 1 1 10.25 23 1.25 1.25 0 0 1 9 24.25zm16 0A1.25 1.25 0 1 1 26.25 23 1.25 1.25 0 0 1 25 24.25zM28.25 21a1.24 1.24 0 0 1-.67 1.09 2.73 2.73 0 0 0-5.21.16h-.62v-10.5h2.69a1.24 1.24 0 0 1 1.21.94l.62 2.49a.8.8 0 0 0 .39.49l.89.45a1.25 1.25 0 0 1 .7 1.12z" data-original="#000000"/><path d="M11 11.75h6a.75.75 0 0 0 0-1.5h-6a.75.75 0 0 0 0 1.5zm-4 4h10a.75.75 0 0 0 0-1.5H7a.75.75 0 0 0 0 1.5z" data-original="#000000"/></svg><view id="close" viewBox="0 1024 512 512"/><svg width="512" height="512" viewBox="0 0 329.27 329" y="1024" xmlns="http://www.w3.org/2000/svg"><path d="M194.8 164.77L323.013 36.555c8.343-8.34 8.343-21.825 0-30.164-8.34-8.34-21.825-8.34-30.164 0L164.633 134.605 36.422 6.391c-8.344-8.34-21.824-8.34-30.164 0-8.344 8.34-8.344 21.824 0 30.164l128.21 128.215L6.259 292.984c-8.344 8.34-8.344 21.825 0 30.164a21.266 21.266 0 0 0 15.082 6.25c5.46 0 10.922-2.09 15.082-6.25l128.21-128.214 128.216 128.214a21.273 21.273 0 0 0 15.082 6.25c5.46 0 10.922-2.09 15.082-6.25 8.343-8.34 8.343-21.824 0-30.164zm0 0" data-original="#000000"/></svg><view id="mastercard" viewBox="512 1024 512 512"/><svg width="512" height="512" viewBox="0 0 512 512" x="512" y="1024" xmlns="http://www.w3.org/2000/svg"><path d="M481.28 81.92H30.72C13.783 81.92 0 95.703 0 112.64v286.72c0 16.937 13.783 30.72 30.72 30.72h450.56c16.937 0 30.72-13.783 30.72-30.72V112.64c0-16.937-13.783-30.72-30.72-30.72zm10.24 317.44c0 5.632-4.608 10.24-10.24 10.24H30.72c-5.652 0-10.24-4.608-10.24-10.24V112.64c0-5.653 4.588-10.24 10.24-10.24h450.56c5.632 0 10.24 4.587 10.24 10.24v286.72z" data-original="#000000"/><path data-original="#000000" d="M10.24 174.08h491.52v40.96H10.24z"/><path d="M501.76 163.84H10.24C4.588 163.84 0 168.427 0 174.08v40.96c0 5.653 4.588 10.24 10.24 10.24h491.52c5.652 0 10.24-4.587 10.24-10.24v-40.96c0-5.653-4.588-10.24-10.24-10.24zm-10.24 40.96H20.48v-20.48h471.04v20.48zm-215.04 81.92H92.16c-5.652 0-10.24 4.588-10.24 10.24s4.588 10.24 10.24 10.24h184.32c5.652 0 10.24-4.588 10.24-10.24 0-5.653-4.588-10.24-10.24-10.24zm-81.92 40.96H92.16c-5.652 0-10.24 4.588-10.24 10.24s4.588 10.24 10.24 10.24h102.4c5.652 0 10.24-4.588 10.24-10.24s-4.588-10.24-10.24-10.24z" data-original="#000000"/></svg><view id="paypal" viewBox="1024 1024 512 512"/><svg width="512" height="512" viewBox="0 0 50.41 50.41" x="1024" y="1024" xmlns="http://www.w3.org/2000/svg"><path d="M9.035 20.604a2.043 2.043 0 0 0-.75-.809 3.513 3.513 0 0 0-1.193-.438 9.75 9.75 0 0 0-1.621-.128l-2.867.002a.718.718 0 0 0-.66.524L.015 28.157c-.07.284.117.522.415.522h1.373a.703.703 0 0 0 .659-.522l.471-2.04a.703.703 0 0 1 .658-.521h.393c1.679-.002 2.979-.345 3.913-1.032.939-.688 1.402-1.597 1.402-2.723-.001-.493-.082-.907-.264-1.237zm-2.961 2.745c-.415.304-.992.456-1.736.456h-.336c-.299 0-.482-.236-.417-.524l.413-1.784c.058-.286.359-.523.654-.521l.45-.003c.525 0 .926.091 1.194.267.265.174.398.451.396.818.008.558-.205.987-.618 1.291zm42.101-3.462l-.086.026-.115.016-.141-.022-.072-.07-.033-.11-.002-.165v-.611h.459v-.189h-.459v-.381h-.227v.381h-.154v.189h.154v.711l.106.352.312.112.131-.011.139-.027v-.201zm2.129-1.028l-.328-.135-.242.049-.246.166-.143-.159-.232-.055-.223.049-.211.136v-.148h-.223v1.335h.222V19.1l.187-.116.186-.046.152.027.075.077.033.128.011.165v.763h.223v-.854l-.004-.071-.004-.065.19-.121.188-.047.147.027.08.077.028.129.015.163v.763h.224v-.867zm-34.648 2.946c-.518-.292-1.336-.438-2.454-.438-.553 0-1.104.043-1.661.129-.411.063-.451.075-.704.13-.522.114-.604.635-.604.635l-.168.691c-.095.441.159.424.265.387.228-.068.355-.138.821-.242.445-.101.914-.177 1.286-.172.549 0 .969.058 1.249.176.276.12.414.326.414.624l-.024.194-.198.122c-.779.049-1.342.121-2.025.22-.668.093-1.254.256-1.741.479-.523.23-.911.539-1.182.932-.262.395-.393.874-.393 1.436 0 .529.19.966.559 1.304.371.332.861.494 1.447.494.371-.002.658-.031.862-.08l.665-.229.563-.312.518-.342.007.01-.052.22-.003.009v.002c-.056.268.106.488.367.514l.005.006h1.275l.018-.008a.71.71 0 0 0 .591-.514l1.001-4.333.052-.353.024-.331c.004-.614-.261-1.069-.78-1.36zm-2.214 4.872l-.214.282-.54.279a1.923 1.923 0 0 1-.718.155c-.338 0-.603-.049-.782-.149l-.265-.515c0-.279.064-.5.201-.67l.582-.396c.249-.084.553-.155.905-.204.314-.039.934-.11 1.015-.112l.095.167c-.019.095-.195.831-.279 1.163zm27.152-4.866c-.521-.292-1.338-.439-2.453-.439-.553 0-1.105.043-1.66.132-.412.06-.453.073-.707.127-.521.113-.602.636-.602.636l-.168.69c-.094.441.154.421.27.387.229-.068.352-.135.814-.243.443-.1.916-.174 1.289-.172.547 0 .967.059 1.246.177.278.12.414.328.414.623l-.021.193-.196.125c-.787.047-1.351.119-2.027.218-.666.093-1.254.255-1.742.479-.521.231-.914.54-1.182.934-.265.395-.394.873-.394 1.43 0 .533.188.97.562 1.306.373.331.858.497 1.444.497.369-.004.656-.028.861-.081l.663-.226.568-.312.514-.346.009.011-.047.222-.005.004.002.004c-.062.268.101.49.365.514l.002.005h1.274l.021-.007a.703.703 0 0 0 .584-.518l1.004-4.327.053-.355.029-.332c.001-.612-.261-1.065-.784-1.356zm-2.209 4.872l-.223.285-.535.277a1.945 1.945 0 0 1-.715.155c-.349 0-.607-.05-.781-.15l-.268-.513c0-.28.065-.499.196-.672.133-.163.336-.297.588-.395a5.1 5.1 0 0 1 .904-.203c.312-.039.93-.112 1.01-.113l.097.167c-.014.095-.191.828-.273 1.162zm-4.416-6.048a2.124 2.124 0 0 0-.756-.812 3.37 3.37 0 0 0-1.193-.438 9.44 9.44 0 0 0-1.615-.126l-2.871.002a.713.713 0 0 0-.655.522l-1.931 8.406c-.07.285.122.521.414.521l1.375-.002a.712.712 0 0 0 .66-.52l.465-2.041a.712.712 0 0 1 .66-.521h.393c1.681 0 2.984-.346 3.922-1.031.927-.693 1.396-1.6 1.396-2.727-.005-.491-.09-.906-.264-1.233zm-2.961 2.749c-.414.298-.992.45-1.732.45h-.342a.411.411 0 0 1-.42-.523l.416-1.781a.698.698 0 0 1 .656-.521l.445-.003c.528.003.924.09 1.194.266.269.176.396.452.399.818.003.558-.204.988-.616 1.294zm14.734-3.534c.063-.287-.117-.52-.412-.516H44.1c-.252 0-.479.187-.59.417l-.068.106-.062.272-1.719 7.814-.056.24.002.006c-.057.257.101.451.345.488l.021.029h1.277c.25 0 .485-.19.592-.424l.066-.1 1.838-8.331-.004-.001zm-20.756 1.622c-.325.004-1.646 0-1.646 0-.296 0-.676.239-.864.524 0 0-1.966 3.374-2.157 3.713l-.228-.003-.612-3.687c-.068-.29-.371-.538-.748-.538l-1.23.002c-.296 0-.478.236-.411.524 0 0 .934 5.315 1.121 6.566.087.69-.011.813-.011.813l-1.216 2.118c-.18.288-.083.523.212.523l1.422-.002c.296 0 .685-.233.861-.522l5.47-9.252c0 .001.526-.79.037-.779z" data-original="#000000"/></svg><view id="visa" viewBox="1536 0 512 512"/><svg width="512" height="512" viewBox="0 0 47.83 47.83" x="1536" xmlns="http://www.w3.org/2000/svg"><path data-original="#000000" d="M19.153 16.799l-2.431 14.266h3.888l2.433-14.266zm-5.691.016l-3.808 9.729-.406-1.469c-.751-1.77-2.883-4.312-5.386-5.914l3.482 11.897 4.114-.007 6.123-14.239-4.119.003z"/><path d="M7.772 17.836c-.226-.869-.881-1.128-1.694-1.159H.05l-.05.284c4.691 1.138 7.795 3.88 9.083 7.177l-1.311-6.302zm23.151 1.698a7.178 7.178 0 0 1 2.91.546l.351.165.526-3.092c-.77-.289-1.977-.599-3.483-.599-3.842 0-6.55 1.935-6.571 4.708-.025 2.049 1.929 3.193 3.405 3.876 1.515.7 2.023 1.145 2.016 1.77-.012.955-1.208 1.393-2.325 1.393-1.557 0-2.384-.215-3.661-.747l-.501-.228-.547 3.193c.91.399 2.589.742 4.332.76 4.087 0 6.743-1.912 6.771-4.875.017-1.621-1.02-2.858-3.267-3.873-1.36-.662-2.192-1.102-2.184-1.77 0-.593.706-1.227 2.228-1.227zm13.765-2.719h-3.004c-.933 0-1.627.254-2.037 1.184l-5.773 13.074h4.083s.666-1.758.817-2.143l4.979.006c.116.498.474 2.137.474 2.137h3.607l-3.146-14.258zm-4.795 9.195c.32-.819 1.549-3.987 1.549-3.987-.021.039.317-.825.518-1.362l.262 1.23.901 4.119h-3.23z" data-original="#000000"/></svg></svg>