<?xml version="1.0" standalone="no"?>
<!DOCTYPE svg PUBLIC "-//W3C//DTD SVG 20010904//EN"
 "http://www.w3.org/TR/2001/REC-SVG-20010904/DTD/svg10.dtd">
<svg version="1.0" xmlns="http://www.w3.org/2000/svg"
 width="120.000000pt" height="120.000000pt" viewBox="0 0 120.000000 120.000000"
 preserveAspectRatio="xMidYMid meet">
<metadata>
Created by potrace 1.14, written by Peter Selinger 2001-2017
</metadata>
<g transform="translate(0.000000,120.000000) scale(0.100000,-0.100000)"
fill="#000000" stroke="none">
<path d="M73 1173 c-18 -9 -33 -21 -33 -25 0 -5 -9 -18 -20 -30 -19 -21 -20
-36 -20 -512 0 -472 1 -492 20 -524 11 -18 34 -41 52 -52 32 -19 52 -20 517
-20 469 0 484 1 520 20 21 13 44 37 55 61 18 37 20 67 20 510 1 259 -2 473 -6
476 -5 2 -8 12 -8 22 0 19 -41 61 -77 80 -15 8 -166 11 -505 10 -424 0 -487
-2 -515 -16z m1009 -57 c15 -10 31 -28 35 -39 4 -12 7 -227 8 -477 1 -503 1
-504 -62 -525 -18 -6 -206 -10 -484 -9 -418 1 -457 2 -482 18 -15 10 -25 22
-22 26 3 5 0 10 -6 12 -18 6 -19 949 -2 955 7 3 10 9 7 14 -3 5 6 14 20 21 14
6 26 14 26 17 0 3 210 6 468 5 429 -1 470 -2 494 -18z"/>
<path d="M180 1088 c0 -4 -6 -5 -14 -2 -8 3 -23 1 -34 -5 -23 -12 -48 -71 -30
-71 7 0 6 -5 -2 -15 -8 -10 -9 -15 -2 -15 6 0 9 -6 6 -13 -7 -20 -10 -217 -3
-217 7 0 3 -49 -5 -57 -3 -3 -1 -14 5 -24 7 -14 6 -19 -3 -19 -10 0 -10 -2 -1
-8 8 -5 9 -13 3 -22 -5 -8 -5 -21 1 -32 5 -10 6 -18 1 -18 -4 0 -8 -9 -8 -20
0 -11 4 -20 9 -20 5 0 4 -7 -3 -15 -8 -10 -9 -15 -2 -15 6 0 9 -6 6 -13 -7
-20 -10 -217 -3 -217 7 0 3 -49 -5 -57 -3 -3 -1 -14 4 -24 6 -11 6 -19 0 -21
-5 -2 -1 -14 10 -28 15 -20 30 -25 84 -30 36 -3 66 -3 66 1 0 3 18 3 40 -1 22
-4 40 -4 40 -1 0 4 27 4 60 1 33 -3 60 -3 60 0 0 3 27 3 60 0 33 -3 60 -3 60
1 0 3 18 3 40 -1 22 -4 40 -4 40 -1 0 4 27 4 60 1 33 -3 60 -3 60 0 0 3 27 3
60 0 33 -3 60 -3 60 0 0 3 32 3 71 2 56 -3 74 0 90 13 10 10 16 21 14 26 -3 4
-1 11 5 14 8 5 7 11 -1 21 -6 8 -7 14 -2 14 10 0 10 41 -1 58 -4 7 -4 12 1 12
10 0 9 132 -1 148 -4 7 -4 12 1 12 10 0 9 142 -1 158 -4 7 -4 12 1 12 10 0 9
52 -1 68 -4 7 -2 12 4 12 8 0 7 6 -1 21 -8 15 -8 19 0 15 6 -4 11 -2 11 3 0 6
-6 11 -12 11 -10 0 -9 3 1 9 9 6 10 11 2 15 -6 4 -9 12 -6 17 12 18 14 50 3
43 -6 -4 -6 1 1 14 7 13 7 23 1 27 -6 4 -6 15 0 31 7 18 7 23 -1 18 -8 -4 -8
0 0 15 9 16 9 21 -1 21 -8 0 -9 3 -3 8 12 8 13 37 2 48 -4 4 -2 13 4 21 9 9 8
13 0 13 -6 0 -11 5 -11 11 0 5 6 7 13 3 6 -3 -1 7 -18 23 -16 17 -31 27 -33
23 -1 -4 -23 -4 -47 0 -25 4 -45 4 -45 0 0 -4 -18 -4 -40 0 -22 4 -40 4 -40 0
0 -4 -20 -4 -45 0 -25 4 -45 4 -45 0 0 -3 -25 -3 -55 0 -30 3 -55 3 -55 0 0
-3 -29 -3 -65 0 -36 3 -65 2 -65 -3 0 -4 -9 -3 -20 3 -15 8 -20 8 -20 -1 0 -8
-4 -8 -15 1 -8 7 -15 8 -15 3 0 -7 -15 -8 -40 -3 -22 4 -40 4 -40 0 0 -4 -20
-4 -45 0 -25 4 -45 4 -45 0 0 -3 -25 -3 -55 0 -30 3 -55 3 -55 -2z m50 -40 c0
4 67 5 150 2 83 -3 150 -2 150 2 0 4 14 3 30 -2 17 -5 30 -5 30 0 0 5 13 5 30
0 17 -5 30 -5 30 0 0 5 13 5 30 0 17 -5 30 -6 30 -2 0 4 70 5 155 2 85 -3 156
-1 158 4 1 4 8 -3 15 -18 8 -18 8 -26 1 -26 -8 0 -8 -4 0 -14 8 -9 8 -16 2
-20 -7 -5 -7 -15 -1 -31 6 -17 6 -25 -1 -25 -6 0 -7 -6 -3 -12 12 -19 12 -48
0 -48 -6 0 -5 -5 2 -12 8 -8 9 -15 1 -25 -7 -7 -7 -13 -2 -13 5 0 9 -9 9 -20
0 -11 -4 -20 -9 -20 -5 0 -4 -6 2 -14 8 -10 9 -16 1 -21 -7 -4 -7 -12 0 -25 7
-13 7 -21 0 -25 -6 -4 -7 -12 -3 -18 11 -17 10 -41 -2 -49 -6 -5 -6 -8 1 -8
12 0 12 -28 1 -47 -4 -6 -1 -13 5 -16 10 -3 10 -7 1 -18 -8 -10 -9 -20 -3 -29
13 -20 12 -33 -1 -24 -8 5 -8 1 0 -14 8 -14 8 -23 1 -27 -8 -5 -7 -11 1 -21 9
-11 8 -14 -2 -14 -11 0 -11 -2 0 -9 11 -7 12 -13 3 -23 -7 -9 -8 -19 -2 -28
13 -20 12 -33 -1 -24 -8 5 -8 1 0 -14 7 -14 8 -23 1 -27 -6 -4 -7 -12 -3 -18
9 -15 9 -49 -1 -65 -4 -7 -2 -12 5 -12 7 0 5 -8 -6 -20 -10 -11 -21 -17 -24
-13 -7 10 -161 11 -161 1 0 -4 -14 -3 -30 2 -16 5 -30 6 -30 2 0 -4 -58 -5
-130 -2 -72 3 -130 2 -130 -2 0 -4 -14 -3 -30 2 -17 5 -30 6 -30 2 0 -4 -58
-5 -130 -2 -72 3 -130 2 -130 -1 0 -4 -15 -3 -32 0 -28 6 -33 11 -32 34 0 15
-3 27 -7 27 -7 0 -3 49 5 57 3 3 1 14 -5 24 -5 11 -6 19 -2 19 4 0 7 19 6 42
-3 38 -3 101 -2 141 1 6 0 23 -1 37 -1 14 1 37 3 53 2 15 0 27 -5 27 -5 0 -7
4 -3 9 9 15 13 71 5 71 -8 0 -5 49 4 57 3 3 1 14 -5 24 -5 11 -6 19 -2 19 4 0
7 19 6 42 -5 81 -5 130 1 135 3 3 1 13 -4 23 -5 10 -6 21 -2 25 4 3 7 12 7 18
1 7 6 11 13 10 7 -2 12 1 12 6 0 6 12 6 30 1 17 -5 30 -6 30 -2z"/>
<path d="M841 773 c-14 -6 -170 -159 -199 -196 -12 -14 -12 -19 1 -32 9 -8 20
-15 26 -15 5 0 56 46 113 103 92 92 102 106 93 125 -10 23 -12 24 -34 15z"/>
<path d="M307 763 c-16 -15 -2 -35 94 -132 83 -83 106 -101 124 -97 12 3 22
13 22 22 0 8 -44 60 -98 115 -89 91 -122 112 -142 92z"/>
<path d="M320 470 c-33 -4 -46 -10 -48 -24 -2 -10 0 -22 5 -27 14 -14 53 -19
53 -7 0 6 5 7 13 2 13 -10 525 -11 550 -1 8 3 15 17 15 31 l0 26 -92 0 c-50 1
-172 2 -271 3 -99 1 -200 0 -225 -3z"/>
</g>
</svg>
